<?xml version="1.0" encoding="utf-8"?>
<!-- Generator: Adobe Illustrator 18.1.0, SVG Export Plug-In . SVG Version: 6.00 Build 0)  -->
<svg version="1.2" baseProfile="tiny" id="Layer_1" xmlns="http://www.w3.org/2000/svg" xmlns:xlink="http://www.w3.org/1999/xlink"
	 x="0px" y="0px" viewBox="0 0 18 18" xml:space="preserve">
<g>
	<path fill="#003A5D" d="M8.7,5.9V3C8.7,3,6.5,4.2,8.7,5.9z"/>
	<path fill="#003A5D" d="M8.8,14.9v-0.7C8.8,14.2,8.6,14.5,8.8,14.9z"/>
	<path fill="#003A5D" d="M8.7,9.8c0,0-0.6,0.6,0,1.2v-0.1c0,0,0,0,0,0c0,0,0,0,0-0.1V9.8z"/>
	<polygon fill="#003A5D" points="10.3,6.4 10.3,6.4 10.3,6.4 	"/>
	<path fill="#003A5D" d="M10.3,6.4c0,0,0.1,0.1,0.1,0.1c0,0,0,0,0,0C10.4,6.5,10.3,6.5,10.3,6.4z"/>
	<path fill="#003A5D" d="M10.4,6.5C10.4,6.5,10.4,6.5,10.4,6.5C10.4,6.5,10.4,6.5,10.4,6.5z"/>
	<path fill="#003A5D" d="M10.3,6.5C10.3,6.5,10.3,6.4,10.3,6.5C10.3,6.4,10.3,6.4,10.3,6.5C10.3,6.4,10.3,6.5,10.3,6.5z"/>
	<path fill="#003A5D" d="M10.4,6.5C10.4,6.5,10.4,6.5,10.4,6.5C10.4,6.5,10.3,6.5,10.4,6.5C10.3,6.5,10.4,6.5,10.4,6.5z"/>
	<path fill="#003A5D" d="M10,7.4C10,7.4,10,7.3,10,7.4C10,7.3,10,7.4,10,7.4C10,7.4,10,7.3,10,7.4C10,7.3,10,7.3,10,7.4
		C10,7.4,10,7.4,10,7.4z M10,7.4C10,7.4,10,7.4,10,7.4L10,7.4z"/>
	<path fill="#003A5D" d="M10,7.2C10,7.2,10,7.2,10,7.2C10,7.2,10,7.2,10,7.2z"/>
	<path fill="#003A5D" d="M9.8,7.7C9.9,7.6,9.9,7.5,10,7.3C10,7.1,9.9,7,9.8,6.8C9.8,7.1,9.8,7.4,9.8,7.7z"/>
	<path fill="#003A5D" d="M17.8,11.6l-4.3-2.5l4.3-2.5C18,6.5,18,6.3,18,6.2l-2-3.4c-0.1-0.1-0.3-0.2-0.4-0.1L11.5,5V0.3
		c0-0.2-0.1-0.3-0.3-0.3H6.8C6.6,0,6.5,0.1,6.5,0.3V5L2.5,2.6C2.3,2.6,2.1,2.6,2,2.7L0,6.2C0,6.3,0,6.5,0.2,6.6l4.3,2.5l-4.3,2.5
		C0,11.7,0,11.9,0,12l2,3.4c0.1,0.1,0.3,0.2,0.4,0.1l4.1-2.4v4.5c0,0.2,0.1,0.3,0.3,0.3h4.4c0.2,0,0.3-0.1,0.3-0.3v-4.5l4.1,2.4
		c0.1,0.1,0.3,0,0.4-0.1l2-3.4C18,11.9,18,11.7,17.8,11.6z M10.7,8C10.5,8.4,10.1,8.7,9.7,9c0,0.3,0,0.6,0,0.8c0,0.2,0,0.3,0,0.5
		c0,0.2,0,0.4,0,0.5c0,0.1,0,0.2,0,0.2c0,0,0,0.1,0,0.2c0,0,0.1,0.1,0.2,0.1c0,0,0,0,0,0c0,0,0,0,0,0c0.1,0.1,0.2,0.1,0.2,0.2
		c0,0,0.1,0.1,0.1,0.1c0,0.1,0.1,0.1,0.1,0.2c0,0,0,0.1,0,0.1c0.1,0.2,0.1,0.4,0,0.6c-0.1,0.3-0.2,0.5-0.5,0.7
		c-0.1,0.1-0.2,0.1-0.3,0.2c0,0.5,0,1-0.1,1.4c0,0.1,0,0.1,0,0.2c0,0.2,0.1,0.2,0.2,0.3c0.2,0.2,0.2,0.5,0.2,0.7
		c-0.1,0.3-0.2,0.4-0.4,0.6c0,0,0,0,0,0c0,0,0,0.1,0,0.1c0,0,0,0,0,0c0,0,0,0,0,0c0,0,0,0,0,0c0,0,0,0.1,0,0.1
		c0,0.2-0.1,0.3-0.1,0.3c-0.1,0.1-0.2,0.1-0.3,0C9,17.2,9,17,8.9,16.9c-0.1-0.3,0-0.7-0.1-1c0-0.2,0-0.3,0-0.5c0,0,0-0.1,0-0.2
		c-0.1,0-0.1-0.1-0.2-0.1c-0.1-0.1-0.2-0.1-0.3-0.2c-0.1-0.1-0.1-0.2-0.2-0.3l0,0c0,0,0,0,0,0c-0.1-0.2-0.1-0.3-0.1-0.5
		c0-0.3,0.2-0.5,0.3-0.7c0.1-0.1,0.2-0.2,0.3-0.3c0-0.5,0-1.1,0-1.6c-0.2-0.2-0.4-0.4-0.6-0.6c0,0,0,0,0,0c-0.7-0.8-0.3-1.4-0.3-1.4
		h0C8,9.4,8,9.3,8.1,9.2C8.3,9,8.4,8.8,8.6,8.7c0,0,0.1-0.1,0.1-0.1c0,0,0,0,0,0c0-0.1,0-0.2,0-0.2c0-0.7,0-1.3,0-2
		c0-0.1-0.2-0.1-0.2-0.2C8.3,6.1,8.2,6,8.1,5.9C8,5.9,8,5.8,7.9,5.8C7.9,5.7,7.7,5.6,7.7,5.6c0-0.1-0.2-0.2-0.2-0.3
		C7.4,5.2,7.3,5.1,7.2,4.9C6.9,4,7.4,3,8.1,2.5c0.1-0.1,0.3-0.2,0.4-0.2c0.1-0.1,0.1-0.2,0.1-0.2c0-0.3,0.2-0.4,0.4-0.5
		c0.1-0.1,0.4-0.1,0.6,0c0.2,0.1,0.3,0.3,0.4,0.5c0,0.1,0,0.1,0,0.2c0.1,0,0.1,0,0.2,0c0.1,0,0.2,0,0.3,0.1c0.1,0,0.1,0.1,0.2,0.1
		c0,0,0.1,0.1,0.1,0.1c0.1,0.2,0.1,0.4-0.1,0.5c0,0,0,0,0,0.1c0,0-0.2,0.1-0.3,0.1c0,0-0.1,0-0.1,0c-0.1,0-0.1,0-0.2,0
		c0,0.5-0.1,1.6-0.1,2.8c0.1,0,0.3,0.2,0.4,0.3c0.1,0,0.2,0.2,0.3,0.3c0.1,0.1,0.2,0.2,0.2,0.4C10.9,7.4,10.8,7.7,10.7,8z"/>
	<path fill="#003A5D" d="M9.4,16.4c0.3-0.3,0.1-0.7,0.1-0.7C9.5,15.8,9.4,16.4,9.4,16.4z"/>
	<path fill="#003A5D" d="M9.6,11.8v0.5C10,12.1,9.6,11.8,9.6,11.8z"/>
	<path fill="#003A5D" d="M10,7.3C10,7.3,10,7.3,10,7.3C10,7.3,10,7.3,10,7.3C10,7.3,10,7.3,10,7.3z"/>
</g>
</svg>
