<?xml version="1.0" encoding="utf-8"?>
<!-- Generator: Adobe Illustrator 18.1.0, SVG Export Plug-In . SVG Version: 6.00 Build 0)  -->
<svg version="1.2" baseProfile="tiny" id="Layer_1" xmlns="http://www.w3.org/2000/svg" xmlns:xlink="http://www.w3.org/1999/xlink"
	 x="0px" y="0px" viewBox="386.8 15.6 18.5 18.7" xml:space="preserve">
<g>
	<path fill="#FFFFFF" d="M395.7,21.9V19C395.7,19,393.5,20.2,395.7,21.9z"/>
	<path fill="#FFFFFF" d="M395.8,31v-0.7C395.8,30.3,395.6,30.6,395.8,31z"/>
	<path fill="#FFFFFF" d="M395.7,25.9c0,0-0.6,0.6,0,1.2V27l0,0c0,0,0,0,0-0.1V25.9z"/>
	<path fill="#FFFFFF" d="M397.3,22.4L397.3,22.4L397.3,22.4z"/>
	<path fill="#FFFFFF" d="M397.3,22.4l0.1,0.1l0,0C397.4,22.5,397.3,22.5,397.3,22.4z"/>
	<path fill="#FFFFFF" d="M397.4,22.5L397.4,22.5L397.4,22.5z"/>
	<path fill="#FFFFFF" d="M397.3,22.5C397.3,22.5,397.3,22.4,397.3,22.5C397.3,22.4,397.3,22.4,397.3,22.5
		C397.3,22.4,397.3,22.5,397.3,22.5z"/>
	<path fill="#FFFFFF" d="M397.4,22.5L397.4,22.5C397.4,22.5,397.3,22.5,397.4,22.5C397.3,22.5,397.4,22.5,397.4,22.5z"/>
	<path fill="#FFFFFF" d="M397,23.4C397,23.4,397,23.3,397,23.4C397,23.3,397,23.4,397,23.4S397,23.3,397,23.4
		C397,23.3,397,23.3,397,23.4L397,23.4z M397,23.4L397,23.4L397,23.4z"/>
	<path fill="#FFFFFF" d="M397,23.2L397,23.2L397,23.2z"/>
	<path fill="#FFFFFF" d="M396.8,23.7c0.1-0.1,0.1-0.2,0.2-0.4c0-0.2-0.1-0.3-0.2-0.5C396.8,23.1,396.8,23.4,396.8,23.7z"/>
	<path fill="#FFFFFF" d="M404.8,27.7l-4.3-2.5l4.3-2.5c0.2-0.1,0.2-0.3,0.2-0.4l-2-3.4c-0.1-0.1-0.3-0.2-0.4-0.1l-4.1,2.3v-4.7
		c0-0.2-0.1-0.3-0.3-0.3h-4.4c-0.2,0-0.3,0.1-0.3,0.3V21l-4-2.4c-0.2,0-0.4,0-0.5,0.1l-2,3.5c0,0.1,0,0.3,0.2,0.4l4.3,2.5l-4.3,2.5
		c-0.2,0.1-0.2,0.3-0.2,0.4l2,3.4c0.1,0.1,0.3,0.2,0.4,0.1l4.1-2.4v4.5c0,0.2,0.1,0.3,0.3,0.3h4.4c0.2,0,0.3-0.1,0.3-0.3v-4.5
		l4.1,2.4c0.1,0.1,0.3,0,0.4-0.1l2-3.4C405,28,405,27.8,404.8,27.7z M397.7,24c-0.2,0.4-0.6,0.7-1,1c0,0.3,0,0.6,0,0.8
		c0,0.2,0,0.3,0,0.5c0,0.2,0,0.4,0,0.5s0,0.2,0,0.2s0,0.1,0,0.2c0,0,0.1,0.1,0.2,0.1l0,0l0,0c0.1,0.1,0.2,0.1,0.2,0.2l0.1,0.1
		c0,0.1,0.1,0.1,0.1,0.2V28c0.1,0.2,0.1,0.4,0,0.6c-0.1,0.3-0.2,0.5-0.5,0.7c-0.1,0.1-0.2,0.1-0.3,0.2c0,0.5,0,1-0.1,1.4
		c0,0.1,0,0.1,0,0.2c0,0.2,0.1,0.2,0.2,0.3c0.2,0.2,0.2,0.5,0.2,0.7c-0.1,0.3-0.2,0.4-0.4,0.6l0,0v0.1l0,0l0,0l0,0v0.1
		c0,0.2-0.1,0.3-0.1,0.3c-0.1,0.1-0.2,0.1-0.3,0c0,0.1,0-0.1-0.1-0.2c-0.1-0.3,0-0.7-0.1-1c0-0.2,0-0.3,0-0.5c0,0,0-0.1,0-0.2
		c-0.1,0-0.1-0.1-0.2-0.1c-0.1-0.1-0.2-0.1-0.3-0.2c-0.1-0.1-0.1-0.2-0.2-0.3l0,0l0,0c-0.1-0.2-0.1-0.3-0.1-0.5
		c0-0.3,0.2-0.5,0.3-0.7c0.1-0.1,0.2-0.2,0.3-0.3c0-0.5,0-1.1,0-1.6c-0.2-0.2-0.4-0.4-0.6-0.6l0,0c-0.7-0.8-0.3-1.4-0.3-1.4l0,0
		c0.3-0.1,0.3-0.2,0.4-0.3c0.2-0.2,0.3-0.4,0.5-0.5l0.1-0.1l0,0c0-0.1,0-0.2,0-0.2c0-0.7,0-1.3,0-2c0-0.1-0.2-0.1-0.2-0.2
		c-0.2-0.1-0.3-0.2-0.4-0.3c-0.1,0-0.1-0.1-0.2-0.1c0-0.1-0.2-0.2-0.2-0.2c0-0.1-0.2-0.2-0.2-0.3c-0.1-0.1-0.2-0.2-0.3-0.4
		c-0.3-0.9,0.2-1.9,0.9-2.4c0.1-0.1,0.3-0.2,0.4-0.2c0.1-0.1,0.1-0.2,0.1-0.2c0-0.3,0.2-0.4,0.4-0.5c0.1-0.1,0.4-0.1,0.6,0
		c0.2,0.1,0.3,0.3,0.4,0.5c0,0.1,0,0.1,0,0.2c0.1,0,0.1,0,0.2,0c0.1,0,0.2,0,0.3,0.1c0.1,0,0.1,0.1,0.2,0.1l0.1,0.1
		c0.1,0.2,0.1,0.4-0.1,0.5c0,0,0,0,0,0.1c0,0-0.2,0.1-0.3,0.1h-0.1c-0.1,0-0.1,0-0.2,0c0,0.5-0.1,1.6-0.1,2.8c0.1,0,0.3,0.2,0.4,0.3
		c0.1,0,0.2,0.2,0.3,0.3c0.1,0.1,0.2,0.2,0.2,0.4C397.9,23.4,397.8,23.7,397.7,24z"/>
	<path fill="#FFFFFF" d="M396.4,32.5c0.3-0.3,0.1-0.7,0.1-0.7C396.5,31.9,396.4,32.5,396.4,32.5z"/>
	<path fill="#FFFFFF" d="M396.6,27.9v0.5C397,28.2,396.6,27.9,396.6,27.9z"/>
	<path fill="#FFFFFF" d="M397,23.3L397,23.3L397,23.3L397,23.3z"/>
</g>
</svg>
