<?xml version="1.0" encoding="utf-8"?>
<!-- Generator: Adobe Illustrator 18.1.0, SVG Export Plug-In . SVG Version: 6.00 Build 0)  -->
<svg version="1.2" baseProfile="tiny" id="Layer_1" xmlns="http://www.w3.org/2000/svg" xmlns:xlink="http://www.w3.org/1999/xlink"
	 x="0px" y="0px" viewBox="0 0 18 18.7" xml:space="preserve">
<g>
	<path fill="#70BF45" d="M8.5,8.6c0,0,0.1-0.2,0.2-0.2c0,0,0,0,0,0C8.7,8.4,8.5,8.6,8.5,8.6 M8.3,7.3C8.3,7.3,8.3,7.3,8.3,7.3
		C8.2,7.3,8,7.1,8.1,7.1C8.2,7.1,8.3,7.2,8.3,7.3 M10.1,8C10,8,10.1,8,10.1,8c0,0,0,0-0.2,0.1c-0.1,0-0.3,0.1-0.3,0.1
		c0,0.1,0.1,0.2,0,0.2c-0.2,0.1-0.5,0-0.5-0.1c0,0,0.1-0.1,0.2-0.1c0,0,0,0,0,0c0,0,0,0,0,0c0,0,0,0,0,0c0,0,0,0,0,0c0,0,0,0,0,0
		c0,0,0,0,0,0c0,0,0,0,0,0c0,0,0,0,0,0C9.1,7.9,9,7.9,8.8,8C8.7,8.1,8.6,8.1,8.5,8.1c0,0,0,0,0,0C8.3,8,8.3,7.9,8.1,7.9
		c-0.1,0-0.1,0-0.2,0c0,0,0-0.1-0.1-0.1c0,0,0,0,0,0c0,0,0,0,0,0c0,0,0,0,0,0c0,0,0,0,0,0c0,0,0,0,0,0c0,0,0,0,0,0c0,0,0,0,0,0
		c0,0,0,0,0,0c0,0,0,0,0,0c0,0,0,0,0,0c0,0,0,0,0,0c0,0,0,0,0,0c0,0,0,0,0,0c0,0,0,0,0,0c0,0,0,0,0,0c0,0,0,0,0,0
		c-0.2,0.1-0.2,0-0.2,0c0,0,0,0,0.1-0.1c0-0.1,0-0.1,0.3-0.2c0.1,0,0.2,0,0.5,0c0,0,0.1,0.1,0.1,0.1c0.3,0,0.4,0,0.6,0.1
		c0.1,0,0.1,0,0.2,0c0.1,0,0.2,0.1,0.2,0.1c0,0,0,0,0.1,0c0,0,0,0,0.1,0c0,0,0,0,0.1,0l0.1,0c0,0,0,0,0.1,0c0,0,0,0,0.1,0
		c0,0,0,0,0.1,0c0,0,0,0,0.1,0c0.2,0,0.2,0.1,0.3,0.2C10,8,10,8,10.1,8 M10.6,7.9c0,0.1-0.3,0.2-0.4,0.2C10.2,8.1,10.3,7.9,10.6,7.9
		C10.6,7.9,10.6,7.9,10.6,7.9 M6.9,0.7L6.9,0.7L6.9,0.7z M7,0.9C7,0.8,6.9,0.8,7,0.9c-0.1,0-0.1,0-0.1,0c0,0,0,0,0,0
		C6.9,0.9,6.9,0.9,7,0.9C7,0.9,7,0.9,7,0.9C7.1,1,7.1,1,7.2,1c0,0,0-0.1,0-0.1C7.1,0.9,7,0.9,7,0.9C7,0.9,7,0.9,7,0.9 M6.6,1.1
		c-0.1,0-0.1,0-0.1,0.1c0,0,0,0.1,0.1,0.1C6.6,1.2,6.6,1.1,6.6,1.1L6.6,1.1C6.6,1.1,6.6,1.1,6.6,1.1 M6,1.4L6,1.4C6,1.3,6,1.3,6,1.4
		C6,1.3,6,1.3,6,1.4L6,1.4C6,1.3,6,1.3,6,1.4C6,1.3,6,1.3,6,1.4C6,1.3,6,1.3,6,1.4C6,1.3,6,1.3,6,1.4L6,1.4C6,1.3,6,1.3,6,1.4
		C6,1.3,6,1.3,6,1.4L6,1.4C6.1,1.3,6.1,1.3,6,1.4L6,1.4L6,1.4C6.1,1.3,6.1,1.3,6,1.4C6.1,1.3,6.1,1.3,6,1.4C6.1,1.3,6.1,1.3,6,1.4
		C6.1,1.2,6,1.3,6,1.4 M6.6,0.9c0.1,0,0.2,0,0.3-0.1c0,0,0-0.1,0-0.1h0h0h0c0,0,0,0,0,0h0c0,0,0,0,0,0c0,0,0,0,0,0
		C6.1,0.8,5.5,1.1,4.9,1.4c0,0,0.1,0,0.1,0c0,0,0,0,0,0c0,0,0,0,0,0c0,0,0,0,0,0h0c0,0,0,0,0,0c0,0,0,0,0,0c0,0,0,0,0,0c0,0,0,0,0,0
		h0h0v0h0l0.1,0c0.3,0,0.5-0.2,0.8-0.1c0,0,0,0,0,0h0c0,0,0,0,0,0h0c0,0,0,0,0,0c0,0,0,0,0,0h0c0,0,0,0,0,0c0,0,0,0,0,0c0,0,0,0,0,0
		v0c0,0,0,0,0,0v0c0,0,0,0,0,0c0,0,0,0,0,0c0,0,0,0,0,0c0,0,0.1,0,0.1-0.1v0v0c0,0,0,0,0,0v0v0v0v0c0,0,0,0,0,0
		C5.9,1.1,5.9,1.1,5.8,1.1C6,0.9,6,0.9,6.2,0.9v0v0v0c0,0,0,0,0,0v0v0v0c0,0,0,0,0.1,0h0.1c0,0,0,0,0.1-0.1c0,0,0,0-0.1,0
		c0,0,0,0-0.1-0.1c0,0,0.1,0,0.1,0h0c0,0,0,0,0,0h0c0,0,0,0,0,0c0,0,0,0,0,0c0,0,0,0,0,0c0,0,0,0,0,0c0,0,0,0,0,0
		C6.5,0.8,6.5,0.8,6.6,0.9C6.5,0.9,6.5,1,6.5,1c0,0,0,0,0,0h0l0,0h0c0,0,0,0,0,0c0,0,0,0,0,0h0c0,0,0,0,0.1,0c0,0,0,0,0,0
		c0,0,0,0,0,0c0,0,0,0,0,0c0,0,0,0,0,0c0,0,0,0,0,0c0,0,0,0,0,0c0,0,0,0,0,0c0,0,0,0,0.1-0.1l0-0.1C6.7,0.9,6.6,0.9,6.6,0.9
		 M3.5,3.9C3.6,3.9,3.6,3.9,3.5,3.9C3.6,3.9,3.6,3.9,3.5,3.9c0.1-0.1,0-0.2,0-0.2c0,0-0.1,0-0.1,0c0,0,0,0-0.1,0
		C3.4,3.9,3.5,4,3.5,3.9 M18,9.4c0-5-4-9-9-9c-0.2,0-0.4,0-0.5,0.1h0c0,0,0,0,0,0h0c0,0,0,0,0,0c0,0,0,0,0.1,0c0.2,0,0.2,0,0.4,0.2
		c0,0,0,0,0,0h0h0h0l0,0h0c0,0,0,0,0,0l0,0c0.1,0,0.5,0.2,0.6,0.3c-0.6,0-1-0.3-1.6-0.4c0,0,0,0,0,0c0,0,0,0,0,0c0,0,0,0,0,0
		c0,0,0,0,0,0c0,0,0,0,0,0c0,0,0,0,0,0c0,0,0,0,0,0c0,0,0,0,0,0c0,0,0,0,0,0h0c0,0,0,0,0,0c0,0,0,0,0,0h0c0,0,0,0,0,0c0,0,0,0,0,0
		c0,0,0,0,0,0c-0.4,0-0.5,0-0.6,0c0,0,0,0,0,0h0h0c0,0,0,0,0,0h0c0,0,0,0,0,0l0,0c0,0,0,0,0,0h0c0,0,0,0,0,0h0c0,0,0,0,0,0
		c0,0,0,0,0,0c0,0,0,0,0,0c0,0,0,0,0,0c0,0,0,0,0,0c-0.1,0-0.1,0-0.2,0c0,0-0.1,0-0.1,0c0,0,0.1,0,0.1,0l0,0h0
		c0.2,0.2,0.5,0,0.8,0.1h0c0.5,0.1,0.5,0.1,0.5,0.1c-0.1,0-0.1,0-0.2,0C8.3,1,8.3,1,8.4,1.1c0,0-0.1,0-0.1,0c0,0,0,0.1,0.1,0.1
		c-0.2,0-0.3,0-0.5,0h0c0,0,0,0,0,0c0,0,0,0,0,0c0,0,0,0,0,0c0,0,0,0,0,0c0,0,0,0,0,0c0,0,0,0,0,0c0,0,0,0-0.1,0c0,0-0.1,0-0.1,0
		c0,0,0-0.1,0-0.1c0,0,0.1,0,0.1,0c0,0,0,0,0,0s0,0,0,0c0,0,0,0,0,0h0h0c0,0,0,0,0,0c0,0,0,0,0,0c0,0,0,0,0,0
		C7.7,0.9,7.7,0.9,7.5,0.8c0,0,0,0,0,0c0,0,0,0,0,0c0,0,0,0,0,0c0,0,0,0,0,0c0,0,0,0,0,0c0,0,0,0,0,0c0,0,0,0,0,0c0,0,0,0,0,0.1
		c0,0.1,0,0.1,0,0.2c0.1,0,0.1,0.1,0.2,0.1c-0.1,0-0.1,0-0.2,0c0,0,0,0.1,0,0.1c0,0-0.1,0-0.1,0c0-0.1,0-0.1-0.1-0.2
		C7.1,1.5,6.5,1.6,6.7,2C7,2,7.3,2,7.6,2.1c0.1,0.1,0,0.3,0.2,0.3c0,0,0.1,0,0.1,0c0-0.4,0-0.4,0.2-0.6c0-0.2-0.2-0.4-0.2-0.6
		c0,0,0.1,0,0.1,0c0,0,0,0,0,0c0,0,0,0,0,0c0,0,0,0,0,0c0,0,0,0,0,0c0,0,0,0,0,0c0,0,0,0,0,0s0,0,0,0c0,0,0,0,0.1,0
		c0.2,0,0.4,0.2,0.6,0.2l0,0c0,0,0-0.1,0-0.1C9.5,1.5,9.7,1.7,10,2c0,0,0,0.1,0,0.1c0.2,0.1,0.4,0.2,0.6,0.3c0,0-0.1,0.1-0.1,0.1
		c-0.1,0-0.1,0-0.2,0c0,0,0,0,0,0c0,0,0,0,0,0c0,0,0,0,0,0c0,0,0,0,0,0c0,0,0,0,0,0c0,0,0,0,0,0c0,0,0,0,0,0c0,0,0,0-0.1,0
		c0,0,0,0-0.1-0.1c0.1-0.2,0.1-0.3,0-0.4C9.8,2,9.7,2,9.2,2.4c0.1,0,0.2,0,0.2,0c0,0,0,0.1,0,0.1c0,0,0,0,0,0c0,0,0,0,0,0
		c0,0,0,0,0,0c0,0,0,0,0,0c0,0,0,0,0,0c0,0,0,0,0,0c0,0,0,0,0,0c0,0,0,0,0,0c0,0,0,0,0,0c0,0,0,0,0,0c0,0,0,0,0,0c0,0,0,0,0,0
		c0,0,0,0,0,0c0,0,0,0,0,0c0,0,0,0,0,0c0,0,0,0,0,0c0.2,0.1,0.2,0.1,0.3,0.1c0-0.1,0.1-0.1,0.1-0.2C10,2.6,10,2.7,10,2.8
		C9.8,2.9,9.7,3.1,9.5,3.3c0-0.1-0.1-0.2-0.1-0.3c-0.3,0-1,1.4-1,1.6c0,0-0.1,0-0.1,0.1c0,0,0,0,0,0c0,0,0,0,0,0c0,0,0,0,0,0
		c0,0,0,0,0,0c0,0,0,0,0,0c0,0,0,0,0,0c0,0,0,0,0,0c0,0,0,0,0,0C8.2,5.3,7.8,5.5,7.6,5.8C7.4,6.3,8.2,7,7.6,7.1C7.6,7.1,7.5,7,7.5,7
		c0,0,0,0,0,0c0,0,0,0,0,0c0,0,0,0,0,0c0,0,0,0,0,0c0,0,0,0,0,0c0,0,0,0,0,0c0,0,0,0,0,0c0,0,0,0,0,0C7.2,6.8,7.3,6.5,7.1,6.4
		c0,0-0.1,0-0.1,0c0,0,0,0.1-0.1,0.1c0,0-0.1,0-0.1,0c0,0-0.1-0.1-0.1-0.2c-0.1,0-0.1,0.1-0.2,0.1c0,0-0.1,0-0.1,0c0,0,0,0-0.1-0.1
		C6.4,6.4,6.3,6.5,6.3,6.6c0,0-0.1,0.1-0.1,0.1C6,7,5.5,6.9,5.3,7.1C4.8,7.4,5.3,8,4.9,8.4c0,0,0,0,0,0c0,0,0,0,0,0c0,0,0,0,0,0
		c0,0,0,0,0,0c0,0,0,0,0,0c0,0,0,0,0,0c0,0,0,0,0,0c0,0,0,0,0,0c0,0,0,0,0.2,0.4c0.4,0.8,1.2-0.3,1.3-0.8c0.2,0,0.3,0.1,0.3,0.2
		C6.7,8.4,6.6,9.4,6.6,9.4c0.3,0,0.5-0.2,0.8-0.1C7.6,9.5,7.6,9.8,7.7,10c0,0,0,0,0,0c0,0,0,0,0,0c0,0,0,0,0,0c0,0,0,0,0,0
		c0,0,0,0,0,0c0,0,0,0,0,0c0,0,0,0,0,0c0,0,0,0,0,0.1c0,0,0,0,0,0C8,10.7,8,10.7,8.5,10.3c0.2,0,0.3,0.1,0.4,0.2c0,0,0,0,0,0
		c0,0,0,0,0,0c0,0,0,0,0,0c0,0,0,0,0,0c0,0,0,0,0,0c0,0,0,0,0,0c0,0,0,0,0,0c0,0,0,0,0-0.1c0,0,0.5-0.7,0.7-0.8
		c0.1,0,0.2,0.1,0.3,0.1c0-0.1,0-0.1,0.1-0.2c0.3,0.1,0.5,0.3,0.8,0.2c0.2-0.1,0.4-0.3,0.7-0.3c0,0,0,0.1,0,0.1
		c0.4,0,0.6,0.4,0.9,0.6c0.4,0.3,0.8-0.2,1.2,0.1c0.2,0.2,0.2,0.3,0.2,0.9c0.2-0.1,0.2-0.1,0.3,0c0,0,0,0.1,0,0.1c0,0,0.1,0,0.1,0
		c0,0,0-0.1,0-0.1c0,0,0.1,0,0.1,0c0,0,0,0.1,0,0.1c0.1,0,0.1,0,0.2,0c0,0.1,0.1,0.2,0.1,0.2c0,0,0.1,0,0.1,0c0,0,0-0.1,0.1-0.1
		c0.5,0,0.5,0,0.7,0.2c0.1,0,0.2,0,0.2,0c0.2,0.4-0.3,1.5-0.5,1.7c0,0,0,0.1,0,0.1c0,0,0,0.1,0,0.1c0,0,0,0.1,0,0.1c0,0,0,0.1,0,0.1
		c0,0,0,0.1,0,0.1c0,0,0,0.1,0,0.1c0,0,0,0.1,0,0.1c0,0,0,0.1-0.1,0.2l-1.8,2.2c0,0-1.1,1.1-1.3,1.2c0,0.1,0,0.2-0.3,0.3
		c0,0,0,0,0,0c0,0,0,0,0,0c0,0,0,0,0,0c0,0,0,0,0,0c0,0,0,0,0,0c0,0,0,0,0,0c0,0,0,0,0,0C15.2,16.9,18,13.5,18,9.4 M5.4,9.9
		C5.1,9.7,4.7,9.8,4.5,9.6C3.8,9.3,3.8,9.3,3.8,9.1c0,0,0-0.1,0.1-0.1c-0.2-0.7-0.7-1.2-1-1.9c0,0-0.1,0.1-0.1,0.1
		c0.1,0.5,0.5,0.9,0.5,1.5c0,0,0,0-0.1,0.1c0,0-0.1,0-0.1,0c0,0-0.4-0.7-0.5-0.9c0-0.1,0-0.1,0.1-0.2v0v0v0v0v0v0v0c0,0,0,0,0,0
		C2.3,6.6,2,5.7,2.9,4.6c0.3-0.4,0.3-0.4,0.3-0.9c0,0,0.1,0,0.1-0.1c0,0,0,0,0,0h0c0,0,0,0,0,0h0c0,0,0,0,0,0s0,0,0,0c0,0,0,0,0,0
		c0,0,0,0,0-0.1c0.1-0.2,0.1-0.2,0.2-0.4C3.7,3,3.8,2.7,3.8,2.5C3.3,2.3,3.2,3.1,2.7,3.1C2.7,3,2.7,3,2.8,3C2.7,3,2.6,3.1,2.6,3.1
		C1,4.7,0,6.9,0,9.4c0,5,4,9,9,9c0.7,0,1.4-0.1,2.1-0.3c0,0,0.1-0.1,0.1-0.1c0,0,0,0,0,0c0,0,0,0,0,0c0,0,0,0,0,0c0,0,0,0,0,0
		c0,0,0,0,0,0c0,0,0,0,0,0c0,0,0,0,0,0c0,0,0,0,0-0.1c0.2-0.6,0.2-0.6,0.1-2.4C9,14.1,8.3,13,8.9,12c0.2-0.3-0.1-1-0.3-1.1
		c0,0,0,0,0,0c0,0,0,0,0,0c0,0,0,0,0,0c0,0,0,0,0,0c0,0,0,0,0,0c0,0,0,0,0,0c0,0,0,0,0,0c0,0,0,0-0.1,0c-0.2,0.2-0.2,0.2-0.2,0.2
		c-0.5,0-0.5,0-0.6,0c-0.4-0.2-0.6-0.6-1-0.8C5.7,9.6,5.7,9.6,5.4,9.9 M3.2,3.5c0,0,0.1-0.3,0.2-0.3c0,0,0,0,0,0.1
		C3.3,3.4,3.2,3.6,3.2,3.5"/>
</g>
</svg>
