<?xml version="1.0" encoding="utf-8"?>
<!-- Generator: Adobe Illustrator 18.1.0, SVG Export Plug-In . SVG Version: 6.00 Build 0)  -->
<svg version="1.2" baseProfile="tiny" id="Layer_1" xmlns="http://www.w3.org/2000/svg" xmlns:xlink="http://www.w3.org/1999/xlink"
	 x="0px" y="0px" viewBox="0 0 18.3 18.2" xml:space="preserve">
<g>
	<path fill="#FFFFFF" d="M2.7,2.8c0,0,2.5-2.7,6.3-2.7s1.9,4.5,1.9,4.5l5.7,7.2l-3.3,5.1c0,0-1.4,0.8-2.1,1
		c-0.7,0.2-3.1-2.4-3.1-2.4L1.7,8L2.7,2.8z"/>
	<g>
		<path fill="#70BF45" d="M8.6,8.3c0,0,0.1-0.2,0.2-0.2c0,0,0,0,0,0C8.9,8.2,8.7,8.3,8.6,8.3 M8.4,7C8.4,7,8.4,7,8.4,7
			C8.3,7,8.2,6.8,8.3,6.8C8.3,6.8,8.4,6.9,8.4,7 M10.2,7.7C10.2,7.7,10.2,7.7,10.2,7.7c0,0,0,0-0.2,0.1c-0.1,0-0.3,0.1-0.3,0.1
			c0,0.1,0.1,0.2,0,0.2C9.6,8.1,9.3,8.1,9.3,8c0,0,0.1-0.1,0.2-0.1c0,0,0,0,0,0c0,0,0,0,0,0c0,0,0,0,0,0c0,0,0,0,0,0c0,0,0,0,0,0
			c0,0,0,0,0,0c0,0,0,0,0,0c0,0,0,0,0,0C9.3,7.6,9.2,7.7,9,7.8C8.9,7.8,8.8,7.9,8.6,7.8c0,0,0,0,0,0C8.5,7.8,8.4,7.6,8.3,7.6
			c-0.1,0-0.1,0-0.2,0c0,0,0-0.1-0.1-0.1c0,0,0,0,0,0c0,0,0,0,0,0c0,0,0,0,0,0c0,0,0,0,0,0c0,0,0,0,0,0c0,0,0,0,0,0c0,0,0,0,0,0
			c0,0,0,0,0,0c0,0,0,0,0,0c0,0,0,0,0,0c0,0,0,0,0,0c0,0,0,0,0,0c0,0,0,0,0,0c0,0,0,0,0,0c0,0,0,0,0,0c0,0,0,0,0,0
			c-0.2,0.1-0.2,0-0.2,0c0,0,0,0,0.1-0.1c0-0.1,0-0.1,0.3-0.2c0.1,0,0.2,0,0.5,0c0,0,0.1,0.1,0.1,0.1c0.3,0,0.4,0,0.6,0.1
			c0.1,0,0.1,0,0.2,0c0.1,0,0.2,0.1,0.2,0.1c0,0,0,0,0.1,0c0,0,0,0,0.1,0c0,0,0,0,0.1,0l0.1,0c0,0,0,0,0.1,0c0,0,0,0,0.1,0
			c0,0,0,0,0.1,0c0,0,0,0,0.1,0c0.2,0,0.2,0.1,0.3,0.2C10.2,7.7,10.2,7.7,10.2,7.7 M10.7,7.6c0,0.1-0.3,0.2-0.4,0.2
			C10.3,7.8,10.5,7.7,10.7,7.6C10.7,7.6,10.7,7.6,10.7,7.6 M7.1,0.4L7.1,0.4L7.1,0.4z M7.1,0.6C7.1,0.6,7.1,0.6,7.1,0.6
			c-0.1,0-0.1,0-0.1,0c0,0,0,0,0,0C7,0.6,7.1,0.6,7.1,0.6C7.1,0.7,7.1,0.7,7.1,0.6c0.1,0.1,0.2,0.1,0.2,0.1c0,0,0-0.1,0-0.1
			C7.3,0.6,7.2,0.6,7.1,0.6C7.2,0.6,7.2,0.6,7.1,0.6 M6.7,0.8c-0.1,0-0.1,0-0.1,0.1c0,0,0,0.1,0.1,0.1C6.8,0.9,6.8,0.9,6.7,0.8
			L6.7,0.8C6.8,0.8,6.8,0.8,6.7,0.8 M6.1,1.1L6.1,1.1C6.2,1.1,6.2,1.1,6.1,1.1C6.2,1.1,6.2,1.1,6.1,1.1L6.1,1.1
			C6.2,1.1,6.2,1.1,6.1,1.1C6.2,1.1,6.2,1.1,6.1,1.1C6.2,1.1,6.2,1.1,6.1,1.1C6.2,1.1,6.2,1.1,6.1,1.1L6.1,1.1
			C6.2,1.1,6.2,1.1,6.1,1.1C6.2,1.1,6.2,1.1,6.1,1.1L6.1,1.1C6.2,1.1,6.2,1.1,6.1,1.1L6.1,1.1L6.1,1.1C6.2,1.1,6.2,1.1,6.1,1.1
			C6.2,1,6.2,1,6.1,1.1C6.2,1,6.2,1,6.1,1.1C6.2,1,6.2,1,6.1,1.1 M6.7,0.6c0.1,0,0.2,0,0.3-0.1c0,0,0-0.1,0-0.1h0h0h0c0,0,0,0,0,0h0
			c0,0,0,0,0,0c0,0,0,0,0,0C6.3,0.6,5.6,0.8,5,1.1c0,0,0.1,0,0.1,0c0,0,0,0,0,0c0,0,0,0,0,0c0,0,0,0,0,0h0c0,0,0,0,0,0c0,0,0,0,0,0
			c0,0,0,0,0,0c0,0,0,0,0,0h0h0v0h0l0.1,0c0.3,0,0.5-0.2,0.8-0.1c0,0,0,0,0,0h0c0,0,0,0,0,0h0c0,0,0,0,0,0c0,0,0,0,0,0h0
			c0,0,0,0,0,0c0,0,0,0,0,0c0,0,0,0,0,0v0c0,0,0,0,0,0v0c0,0,0,0,0,0c0,0,0,0,0,0c0,0,0,0,0,0c0,0,0.1,0,0.1-0.1v0v0c0,0,0,0,0,0v0
			v0v0v0c0,0,0,0,0,0C6.1,0.8,6.1,0.8,6,0.9c0.2-0.2,0.2-0.2,0.3-0.2v0v0v0c0,0,0,0,0,0v0v0v0c0,0,0,0,0.1,0h0.1c0,0,0,0,0.1-0.1
			c0,0,0,0-0.1,0c0,0,0,0-0.1-0.1c0,0,0.1,0,0.1,0h0c0,0,0,0,0,0h0c0,0,0,0,0,0c0,0,0,0,0,0c0,0,0,0,0,0c0,0,0,0,0,0c0,0,0,0,0,0
			C6.6,0.5,6.7,0.5,6.7,0.6c-0.1,0-0.1,0.1-0.1,0.2c0,0,0,0,0,0h0l0,0h0c0,0,0,0,0,0c0,0,0,0,0,0h0c0,0,0,0,0.1,0c0,0,0,0,0,0
			c0,0,0,0,0,0c0,0,0,0,0,0c0,0,0,0,0,0c0,0,0,0,0,0c0,0,0,0,0,0c0,0,0,0,0,0c0,0,0,0,0.1-0.1l0-0.1C6.9,0.6,6.8,0.6,6.7,0.6
			 M3.7,3.7C3.7,3.7,3.7,3.7,3.7,3.7C3.8,3.6,3.8,3.6,3.7,3.7c0.1-0.1,0-0.2,0-0.2c0,0-0.1,0-0.1,0c0,0,0,0-0.1,0
			C3.5,3.6,3.6,3.7,3.7,3.7 M18.2,9.1c0-5-4-9-9-9c-0.2,0-0.4,0-0.5,0.1h0c0,0,0,0,0,0h0c0,0,0,0,0,0c0,0,0,0,0.1,0
			c0.2,0,0.2,0,0.4,0.2c0,0,0,0,0,0h0h0h0l0,0h0c0,0,0,0,0,0l0,0c0.1,0,0.5,0.2,0.6,0.3c-0.6,0-1-0.3-1.6-0.4c0,0,0,0,0,0
			c0,0,0,0,0,0c0,0,0,0,0,0c0,0,0,0,0,0c0,0,0,0,0,0c0,0,0,0,0,0c0,0,0,0,0,0c0,0,0,0,0,0c0,0,0,0,0,0h0c0,0,0,0,0,0c0,0,0,0,0,0h0
			c0,0,0,0,0,0c0,0,0,0,0,0c0,0,0,0,0,0c-0.4,0-0.5,0-0.6,0c0,0,0,0,0,0h0h0c0,0,0,0,0,0h0c0,0,0,0,0,0l0,0c0,0,0,0,0,0h0
			c0,0,0,0,0,0h0c0,0,0,0,0,0c0,0,0,0,0,0c0,0,0,0,0,0c0,0,0,0,0,0c0,0,0,0,0,0c-0.1,0-0.1,0-0.2,0c0,0-0.1,0-0.1,0c0,0,0.1,0,0.1,0
			l0,0h0c0.2,0.2,0.5,0,0.8,0.1h0c0.5,0.1,0.5,0.1,0.5,0.1c-0.1,0-0.1,0-0.2,0c0.2,0.1,0.2,0.1,0.3,0.2c0,0-0.1,0-0.1,0
			c0,0,0,0.1,0.1,0.1c-0.2,0-0.3,0-0.5,0h0c0,0,0,0,0,0c0,0,0,0,0,0c0,0,0,0,0,0c0,0,0,0,0,0c0,0,0,0,0,0c0,0,0,0,0,0c0,0,0,0-0.1,0
			c0,0-0.1,0-0.1,0c0,0,0-0.1,0-0.1c0,0,0.1,0,0.1,0c0,0,0,0,0,0s0,0,0,0c0,0,0,0,0,0h0h0c0,0,0,0,0,0c0,0,0,0,0,0c0,0,0,0,0,0
			C7.9,0.6,7.9,0.6,7.6,0.6c0,0,0,0,0,0c0,0,0,0,0,0c0,0,0,0,0,0c0,0,0,0,0,0c0,0,0,0,0,0c0,0,0,0,0,0c0,0,0,0,0,0c0,0,0,0,0,0.1
			c0,0.1,0,0.1,0,0.2c0.1,0,0.1,0.1,0.2,0.1C7.6,1,7.6,1,7.5,1c0,0,0,0.1,0,0.1c0,0-0.1,0-0.1,0c0-0.1,0-0.1-0.1-0.2
			C7.3,1.2,6.7,1.3,6.9,1.7c0.3,0.1,0.6,0,0.8,0.2c0.1,0.1,0,0.3,0.2,0.3c0,0,0.1,0,0.1,0c0-0.4,0-0.4,0.2-0.6
			c0-0.2-0.2-0.4-0.2-0.6C8,1,8,1,8,1c0,0,0,0,0,0c0,0,0,0,0,0c0,0,0,0,0,0c0,0,0,0,0,0c0,0,0,0,0,0c0,0,0,0,0,0c0,0,0,0,0,0
			c0,0,0,0,0.1,0c0.2,0,0.4,0.2,0.6,0.2l0,0c0,0,0-0.1,0-0.1c0.9,0.2,1.1,0.4,1.4,0.7c0,0,0,0.1,0,0.1c0.2,0.1,0.4,0.2,0.6,0.3
			c0,0-0.1,0.1-0.1,0.1c-0.1,0-0.1,0-0.2,0c0,0,0,0,0,0c0,0,0,0,0,0c0,0,0,0,0,0c0,0,0,0,0,0c0,0,0,0,0,0c0,0,0,0,0,0c0,0,0,0,0,0
			c0,0,0,0-0.1,0c0,0,0,0-0.1-0.1c0.1-0.2,0.1-0.3,0-0.4c-0.1,0-0.2,0-0.8,0.3c0.1,0,0.2,0,0.2,0c0,0,0,0.1,0,0.1c0,0,0,0,0,0
			c0,0,0,0,0,0c0,0,0,0,0,0c0,0,0,0,0,0c0,0,0,0,0,0c0,0,0,0,0,0c0,0,0,0,0,0c0,0,0,0,0,0c0,0,0,0,0,0c0,0,0,0,0,0c0,0,0,0,0,0
			c0,0,0,0,0,0c0,0,0,0,0,0c0,0,0,0,0,0c0,0,0,0,0,0c0,0,0,0,0,0c0.2,0.1,0.2,0.1,0.3,0.1c0-0.1,0.1-0.1,0.1-0.2
			c0.2,0,0.2,0.1,0.2,0.2C10,2.6,9.8,2.8,9.6,3c0-0.1-0.1-0.2-0.1-0.3c-0.3,0-1,1.4-1,1.6c0,0-0.1,0-0.1,0.1c0,0,0,0,0,0
			c0,0,0,0,0,0c0,0,0,0,0,0c0,0,0,0,0,0c0,0,0,0,0,0c0,0,0,0,0,0c0,0,0,0,0,0c0,0,0,0,0,0C8.4,5,8,5.2,7.8,5.6
			C7.6,6,8.4,6.7,7.8,6.9c-0.1,0-0.1-0.1-0.1-0.1c0,0,0,0,0,0c0,0,0,0,0,0c0,0,0,0,0,0c0,0,0,0,0,0c0,0,0,0,0,0c0,0,0,0,0,0
			c0,0,0,0,0,0c0,0,0,0,0,0C7.3,6.5,7.4,6.3,7.3,6.1c0,0-0.1,0-0.1,0c0,0,0,0.1-0.1,0.1c0,0-0.1,0-0.1,0C7,6.2,7,6.1,6.9,6
			c-0.1,0-0.1,0.1-0.2,0.1c0,0-0.1,0-0.1,0c0,0,0,0-0.1-0.1C6.6,6.2,6.5,6.2,6.4,6.3c0,0-0.1,0.1-0.1,0.1C6.1,6.8,5.7,6.6,5.4,6.8
			C4.9,7.1,5.5,7.7,5.1,8.1c0,0,0,0,0,0c0,0,0,0,0,0c0,0,0,0,0,0c0,0,0,0,0,0c0,0,0,0,0,0c0,0,0,0,0,0c0,0,0,0,0,0c0,0,0,0,0,0
			c0,0,0,0,0.2,0.4c0.4,0.8,1.2-0.3,1.3-0.8C6.9,7.8,7,7.9,7,8C6.8,8.1,6.8,9.1,6.8,9.1c0.3,0,0.5-0.2,0.8-0.1
			c0.2,0.1,0.3,0.4,0.3,0.7c0,0,0,0,0,0c0,0,0,0,0,0c0,0,0,0,0,0c0,0,0,0,0,0c0,0,0,0,0,0c0,0,0,0,0,0c0,0,0,0,0,0c0,0,0,0,0,0.1
			c0,0,0,0,0,0c0.3,0.3,0.3,0.3,0.8-0.1c0.2,0,0.3,0.1,0.4,0.2c0,0,0,0,0,0c0,0,0,0,0,0c0,0,0,0,0,0c0,0,0,0,0,0c0,0,0,0,0,0
			c0,0,0,0,0,0c0,0,0,0,0,0c0,0,0,0,0-0.1c0,0,0.5-0.7,0.7-0.8c0.1,0,0.2,0.1,0.3,0.1c0-0.1,0-0.1,0.1-0.2c0.3,0.1,0.5,0.3,0.8,0.2
			c0.2-0.1,0.4-0.3,0.7-0.3c0,0,0,0.1,0,0.1c0.4,0,0.6,0.4,0.9,0.6c0.4,0.3,0.8-0.2,1.2,0.1c0.2,0.2,0.2,0.3,0.2,0.9
			c0.2-0.1,0.2-0.1,0.3,0c0,0,0,0.1,0,0.1c0,0,0.1,0,0.1,0c0,0,0-0.1,0-0.1c0,0,0.1,0,0.1,0c0,0,0,0.1,0,0.1c0.1,0,0.1,0,0.2,0
			c0,0.1,0.1,0.2,0.1,0.2c0,0,0.1,0,0.1,0c0,0,0-0.1,0.1-0.1c0.5,0,0.5,0,0.7,0.2c0.1,0,0.2,0,0.2,0c0.2,0.4-0.3,1.5-0.5,1.7
			c0,0,0,0.1,0,0.1c0,0,0,0.1,0,0.1c0,0,0,0.1,0,0.1c0,0,0,0.1,0,0.1c0,0,0,0.1,0,0.1c0,0,0,0.1,0,0.1c0,0,0,0.1,0,0.1
			c0,0,0,0.1-0.1,0.2l-1.8,2.2c0,0-1.1,1.1-1.3,1.2c0,0.1,0,0.2-0.3,0.3c0,0,0,0,0,0c0,0,0,0,0,0c0,0,0,0,0,0c0,0,0,0,0,0
			c0,0,0,0,0,0c0,0,0,0,0,0c0,0,0,0,0,0C15.4,16.7,18.2,13.2,18.2,9.1 M5.5,9.6C5.2,9.5,4.9,9.5,4.6,9.4C4,9.1,4,9.1,3.9,8.8
			c0,0,0-0.1,0.1-0.1C3.8,8.1,3.2,7.5,3,6.9C3,6.9,2.9,7,2.9,7c0.1,0.5,0.5,0.9,0.5,1.5c0,0,0,0-0.1,0.1c0,0-0.1,0-0.1,0
			c0,0-0.4-0.7-0.5-0.9c0-0.1,0-0.1,0.1-0.2v0v0v0v0v0v0v0c0,0,0,0,0,0C2.5,6.3,2.2,5.4,3.1,4.3C3.4,4,3.4,3.9,3.4,3.5
			c0,0,0.1,0,0.1-0.1c0,0,0,0,0,0h0c0,0,0,0,0,0h0c0,0,0,0,0,0c0,0,0,0,0,0c0,0,0,0,0,0c0,0,0,0,0-0.1c0.1-0.2,0.1-0.2,0.2-0.4
			C3.9,2.7,4,2.4,4,2.2C3.4,2,3.3,2.8,2.8,2.8c0,0,0.1-0.1,0.1-0.1C2.8,2.8,2.8,2.8,2.7,2.8C1.1,4.4,0.2,6.6,0.2,9.1c0,5,4,9,9,9
			c0.7,0,1.4-0.1,2.1-0.3c0,0,0.1-0.1,0.1-0.1c0,0,0,0,0,0c0,0,0,0,0,0c0,0,0,0,0,0c0,0,0,0,0,0c0,0,0,0,0,0c0,0,0,0,0,0
			c0,0,0,0,0,0c0,0,0,0,0-0.1c0.2-0.6,0.2-0.6,0.1-2.4c-2.2-1.3-2.9-2.4-2.3-3.4c0.2-0.3-0.1-1-0.3-1.1c0,0,0,0,0,0c0,0,0,0,0,0
			c0,0,0,0,0,0c0,0,0,0,0,0c0,0,0,0,0,0c0,0,0,0,0,0c0,0,0,0,0,0c0,0,0,0-0.1,0c-0.2,0.2-0.2,0.2-0.2,0.2c-0.5,0-0.5,0-0.6,0
			c-0.4-0.2-0.6-0.6-1-0.8C5.9,9.4,5.9,9.4,5.5,9.6 M3.4,3.3c0,0,0.1-0.3,0.2-0.3c0,0,0,0,0,0.1C3.5,3.1,3.4,3.3,3.4,3.3"/>
	</g>
</g>
</svg>
