<?xml version="1.0" encoding="utf-8"?>
<!-- Generator: Adobe Illustrator 18.1.0, SVG Export Plug-In . SVG Version: 6.00 Build 0)  -->
<svg version="1.2" baseProfile="tiny" id="Layer_1" xmlns="http://www.w3.org/2000/svg" xmlns:xlink="http://www.w3.org/1999/xlink"
	 x="0px" y="0px" viewBox="386.6 15.6 18.7 18.7" xml:space="preserve">
<g>
	<path fill="#FFFFFF" d="M395.5,24.2c0,0,0.1-0.2,0.2-0.2l0,0C395.7,24,395.5,24.2,395.5,24.2 M395.3,22.9L395.3,22.9
		c-0.1,0-0.3-0.2-0.2-0.2S395.3,22.8,395.3,22.9 M397.1,23.6C397,23.6,397.1,23.6,397.1,23.6s0,0-0.2,0.1c-0.1,0-0.3,0.1-0.3,0.1
		c0,0.1,0.1,0.2,0,0.2c-0.2,0.1-0.5,0-0.5-0.1c0,0,0.1-0.1,0.2-0.1l0,0l0,0l0,0l0,0l0,0l0,0l0,0l0,0c-0.2-0.3-0.3-0.3-0.5-0.2
		c-0.1,0.1-0.2,0.1-0.3,0.1l0,0c-0.2-0.1-0.2-0.2-0.4-0.2c-0.1,0-0.1,0-0.2,0c0,0,0-0.1-0.1-0.1l0,0l0,0l0,0l0,0l0,0l0,0l0,0l0,0
		l0,0l0,0l0,0l0,0l0,0l0,0l0,0l0,0c-0.2,0.1-0.2,0-0.2,0s0,0,0.1-0.1c0-0.1,0-0.1,0.3-0.2c0.1,0,0.2,0,0.5,0l0.1,0.1
		c0.3,0,0.4,0,0.6,0.1c0.1,0,0.1,0,0.2,0s0.2,0.1,0.2,0.1s0,0,0.1,0c0,0,0,0,0.1,0c0,0,0,0,0.1,0h0.1c0,0,0,0,0.1,0c0,0,0,0,0.1,0
		c0,0,0,0,0.1,0c0,0,0,0,0.1,0c0.2,0,0.2,0.1,0.3,0.2C397,23.6,397,23.6,397.1,23.6 M397.6,23.5c0,0.1-0.3,0.2-0.4,0.2
		C397.2,23.7,397.3,23.5,397.6,23.5L397.6,23.5 M393.9,16.3L393.9,16.3L393.9,16.3z M394,16.5C394,16.4,393.9,16.4,394,16.5
		C393.9,16.5,393.9,16.5,394,16.5L394,16.5C393.9,16.5,393.9,16.5,394,16.5L394,16.5c0.1,0.1,0.1,0.1,0.2,0.1v-0.1
		C394.1,16.5,394,16.5,394,16.5L394,16.5 M393.6,16.7c-0.1,0-0.1,0-0.1,0.1c0,0,0,0.1,0.1,0.1C393.6,16.8,393.6,16.7,393.6,16.7
		L393.6,16.7L393.6,16.7 M393,17L393,17C393,16.9,393,16.9,393,17C393,16.9,393,16.9,393,17L393,17C393,16.9,393,16.9,393,17
		C393,16.9,393,16.9,393,17C393,16.9,393,16.9,393,17C393,16.9,393,16.9,393,17L393,17C393,16.9,393,16.9,393,17
		C393,16.9,393,16.9,393,17L393,17C393.1,16.9,393.1,16.9,393,17L393,17L393,17C393.1,16.9,393.1,16.9,393,17
		C393.1,16.9,393.1,16.9,393,17C393.1,16.9,393.1,16.9,393,17C393.1,16.8,393,16.9,393,17 M393.6,16.5c0.1,0,0.2,0,0.3-0.1v-0.1l0,0
		l0,0l0,0l0,0l0,0l0,0l0,0c-0.8,0.1-1.4,0.4-2,0.7h0.1l0,0l0,0l0,0l0,0l0,0l0,0l0,0l0,0l0,0l0,0l0,0l0,0h0.1c0.3,0,0.5-0.2,0.8-0.1
		l0,0l0,0l0,0l0,0l0,0l0,0l0,0l0,0l0,0l0,0l0,0l0,0l0,0l0,0l0,0l0,0c0,0,0.1,0,0.1-0.1l0,0l0,0l0,0l0,0l0,0l0,0l0,0l0,0
		c-0.1-0.1-0.1-0.1-0.2-0.1c0.2-0.2,0.2-0.2,0.4-0.2l0,0l0,0l0,0l0,0l0,0l0,0l0,0c0,0,0,0,0.1,0h0.1c0,0,0,0,0.1-0.1c0,0,0,0-0.1,0
		c0,0,0,0-0.1-0.1h0.1l0,0l0,0l0,0l0,0l0,0l0,0l0,0l0,0C393.5,16.4,393.5,16.4,393.6,16.5c-0.1,0-0.1,0.1-0.1,0.1l0,0l0,0l0,0l0,0
		l0,0l0,0l0,0c0,0,0,0,0.1,0l0,0l0,0l0,0l0,0l0,0l0,0l0,0c0,0,0,0,0.1-0.1v-0.1C393.7,16.5,393.6,16.5,393.6,16.5 M390.5,19.5
		C390.6,19.5,390.6,19.5,390.5,19.5C390.6,19.5,390.6,19.5,390.5,19.5c0.1-0.1,0-0.2,0-0.2h-0.1c0,0,0,0-0.1,0
		C390.4,19.5,390.5,19.6,390.5,19.5 M405,25c0-5-4-9-9-9c-0.2,0-0.4,0-0.5,0.1l0,0l0,0l0,0l0,0c0,0,0,0,0.1,0c0.2,0,0.2,0,0.4,0.2
		l0,0l0,0l0,0l0,0l0,0l0,0l0,0l0,0c0.1,0,0.5,0.2,0.6,0.3c-0.6,0-1-0.3-1.6-0.4l0,0l0,0l0,0l0,0l0,0l0,0l0,0l0,0l0,0l0,0l0,0l0,0
		l0,0l0,0l0,0l0,0c-0.4,0-0.5,0-0.6,0l0,0l0,0l0,0l0,0l0,0l0,0l0,0l0,0l0,0l0,0l0,0l0,0l0,0l0,0l0,0l0,0c-0.1,0-0.1,0-0.2,0h-0.1
		h0.1l0,0l0,0c0.2,0.2,0.5,0,0.8,0.1l0,0c0.5,0.1,0.5,0.1,0.5,0.1c-0.1,0-0.1,0-0.2,0c0,0.2,0,0.2,0.1,0.3h-0.1c0,0,0,0.1,0.1,0.1
		c-0.2,0-0.3,0-0.5,0l0,0l0,0l0,0l0,0l0,0l0,0l0,0c0,0,0,0-0.1,0h-0.1v-0.1h0.1l0,0l0,0l0,0l0,0l0,0l0,0l0,0l0,0
		c-0.1-0.2-0.1-0.2-0.3-0.3l0,0l0,0l0,0l0,0l0,0l0,0l0,0c0,0,0,0,0,0.1c0,0.1,0,0.1,0,0.2c0.1,0,0.1,0.1,0.2,0.1c-0.1,0-0.1,0-0.2,0
		v0.1h-0.1c0-0.1,0-0.1-0.1-0.2c-0.2,0.4-0.8,0.5-0.6,0.9c0.3,0,0.6,0,0.9,0.1c0.1,0.1,0,0.3,0.2,0.3h0.1c0-0.4,0-0.4,0.2-0.6
		c0-0.2-0.2-0.4-0.2-0.6h0.1l0,0l0,0l0,0l0,0l0,0l0,0l0,0c0,0,0,0,0.1,0c0.2,0,0.4,0.2,0.6,0.2l0,0v-0.1c0.8,0.2,1,0.4,1.3,0.7v0.1
		c0.2,0.1,0.4,0.2,0.6,0.3l-0.1,0.1c-0.1,0-0.1,0-0.2,0l0,0l0,0l0,0l0,0l0,0l0,0l0,0c0,0,0,0-0.1,0c0,0,0,0-0.1-0.1
		c0.1-0.2,0.1-0.3,0-0.4c-0.3,0-0.4,0-0.9,0.4c0.1,0,0.2,0,0.2,0v0.1l0,0l0,0l0,0l0,0l0,0l0,0l0,0l0,0l0,0l0,0l0,0l0,0l0,0l0,0l0,0
		l0,0c0.2,0.1,0.2,0.1,0.3,0.1c0-0.1,0.1-0.1,0.1-0.2c0.2,0.2,0.2,0.3,0.2,0.4c-0.2,0.1-0.3,0.3-0.5,0.5c0-0.1-0.1-0.2-0.1-0.3
		c-0.3,0-1,1.4-1,1.6c0,0-0.1,0-0.1,0.1l0,0l0,0l0,0l0,0l0,0l0,0l0,0l0,0c-0.1,0.6-0.5,0.8-0.7,1.1c-0.2,0.5,0.6,1.2,0,1.3l-0.1-0.1
		l0,0l0,0l0,0l0,0l0,0l0,0l0,0l0,0c-0.3-0.2-0.2-0.5-0.4-0.6H394c0,0,0,0.1-0.1,0.1h-0.1c0,0-0.1-0.1-0.1-0.2
		c-0.1,0-0.1,0.1-0.2,0.1h-0.1c0,0,0,0-0.1-0.1c0.1,0.1,0,0.2,0,0.3l-0.1,0.1c-0.2,0.3-0.7,0.2-0.9,0.4c-0.5,0.3,0,0.9-0.4,1.3l0,0
		l0,0l0,0l0,0l0,0l0,0l0,0l0,0c0,0,0,0,0.2,0.4c0.4,0.8,1.2-0.3,1.3-0.8c0.2,0,0.3,0.1,0.3,0.2c0,0.2-0.1,1.2-0.1,1.2
		c0.3,0,0.5-0.2,0.8-0.1c0.2,0.2,0.2,0.5,0.3,0.7l0,0l0,0l0,0l0,0l0,0l0,0l0,0c0,0,0,0,0,0.1l0,0c0.3,0.6,0.3,0.6,0.8,0.2
		c0.2,0,0.3,0.1,0.4,0.2l0,0l0,0l0,0l0,0l0,0l0,0l0,0c0,0,0,0,0-0.1c0,0,0.5-0.7,0.7-0.8c0.1,0,0.2,0.1,0.3,0.1c0-0.1,0-0.1,0.1-0.2
		c0.3,0.1,0.5,0.3,0.8,0.2c0.2-0.1,0.4-0.3,0.7-0.3v0.1c0.4,0,0.6,0.4,0.9,0.6c0.4,0.3,0.8-0.2,1.2,0.1c0.2,0.2,0.2,0.3,0.2,0.9
		c0.2-0.1,0.2-0.1,0.3,0v0.1h0.1v-0.1h0.1v0.1c0.1,0,0.1,0,0.2,0c0,0.1,0.1,0.2,0.1,0.2h0.1c0,0,0-0.1,0.1-0.1c0.5,0,0.5,0,0.7,0.2
		c0.1,0,0.2,0,0.2,0c0.2,0.4-0.3,1.5-0.5,1.7v0.1V29v0.1v0.1v0.1v0.1v0.1c0,0,0,0.1-0.1,0.2l-1.8,2.2c0,0-1.1,1.1-1.3,1.2
		c0,0.1,0,0.2-0.3,0.3l0,0l0,0l0,0l0,0l0,0l0,0l0,0C402.2,32.5,405,29.1,405,25 M392.4,25.5c-0.3-0.2-0.7-0.1-0.9-0.3
		c-0.7-0.3-0.7-0.3-0.7-0.5c0,0,0-0.1,0.1-0.1c-0.2-0.7-0.7-1.2-1-1.9l-0.1,0.1c0.1,0.5,0.5,0.9,0.5,1.5c0,0,0,0-0.1,0.1h-0.1
		c0,0-0.4-0.7-0.5-0.9c0-0.1,0-0.1,0.1-0.2l0,0l0,0l0,0l0,0l0,0l0,0l0,0l0,0c-0.4-1.1-0.7-2,0.2-3.1c0.3-0.4,0.3-0.4,0.3-0.9
		c0,0,0.1,0,0.1-0.1l0,0l0,0l0,0l0,0l0,0l0,0l0,0c0,0,0,0,0-0.1c0.1-0.2,0.1-0.2,0.2-0.4c0.2-0.1,0.3-0.4,0.3-0.6
		c-0.5-0.2-0.6,0.6-1.1,0.6c0-0.1,0-0.1,0.1-0.1c-0.1,0-0.2,0.1-0.2,0.1c-1.6,1.6-2.6,3.8-2.6,6.3c0,5,4,9,9,9
		c0.7,0,1.4-0.1,2.1-0.3l0.1-0.1l0,0l0,0l0,0l0,0l0,0l0,0l0,0c0,0,0,0,0-0.1c0.2-0.6,0.2-0.6,0.1-2.4c-2.3-1.4-3-2.5-2.4-3.5
		c0.2-0.3-0.1-1-0.3-1.1l0,0l0,0l0,0l0,0l0,0l0,0l0,0c0,0,0,0-0.1,0c-0.2,0.2-0.2,0.2-0.2,0.2c-0.5,0-0.5,0-0.6,0
		c-0.4-0.2-0.6-0.6-1-0.8C392.7,25.2,392.7,25.2,392.4,25.5 M390.2,19.1c0,0,0.1-0.3,0.2-0.3c0,0,0,0,0,0.1
		C390.3,19,390.2,19.2,390.2,19.1"/>
</g>
</svg>
