<?xml version="1.0" encoding="utf-8"?>
<!-- Generator: Adobe Illustrator 18.1.0, SVG Export Plug-In . SVG Version: 6.00 Build 0)  -->
<svg version="1.2" baseProfile="tiny" id="Layer_1" xmlns="http://www.w3.org/2000/svg" xmlns:xlink="http://www.w3.org/1999/xlink"
	 x="0px" y="0px" viewBox="386.6 15.6 18.7 18.7" xml:space="preserve">
<g>
	<path fill="#FFFFFF" d="M399.6,24.2c-1.2,0-2,0.6-2.6,1.4c-0.1,0-0.1-0.1-0.2-0.1c0.1-0.6-0.2-1.1-0.7-1.2v-0.4
		c1.3-0.1,2.2-0.8,2.6-1.8c0.8-1.9-0.5-3.8-2.2-4.1c2.1,0.3,3.8,2,3.7,4.6c1.8,0.7,3.1,3.1,2.2,5.5C403,26.1,401.6,24.2,399.6,24.2
		 M398.8,24.6c0.3-0.1,0.6-0.2,1-0.1c0.2,2.3-0.9,3.5-2.4,4.2c-0.2-0.2-0.3-0.6-0.4-0.9C398.1,27.3,399,26.3,398.8,24.6 M398.2,30.8
		c-0.9-0.1-1.6-0.4-2.2-0.8c-0.6,0.4-1.3,0.7-2.2,0.8c-1.5,0.1-2.9-0.6-3.5-1.5c0,0-0.2-0.2-0.1-0.2c0.4,0.5,1.3,1,2.2,1
		c2.2,0,3.6-2.3,2.6-4.4c0.1,0,0.2-0.1,0.2-0.1c0.3,0.2,0.5,0.4,0.8,0.4c0.3,0,0.4-0.2,0.6-0.3c0.1,0.1,0.2,0.1,0.2,0.1
		c-1,2,0.4,4.3,2.5,4.4c1,0,1.8-0.4,2.3-1C401.2,30,399.8,30.9,398.2,30.8 M395,27.8c-0.1,0.4-0.2,0.7-0.4,0.9
		c-1.5-0.7-2.6-1.9-2.4-4.2c0.3-0.1,0.7,0,1,0.1C393,26.3,393.9,27.3,395,27.8 M389.6,28.1c-1-2.3,0.4-4.8,2.2-5.4
		c-0.1-2.8,1.3-4.2,3.6-4.7c0.1,0.1-0.1,0-0.2,0.1c-1.2,0.4-2.2,1.3-2.2,2.9c0,1.7,1.2,2.8,2.8,3v0.3c-0.4,0.1-0.8,0.6-0.6,1.1
		c-0.1,0.1-0.2,0.1-0.2,0.2c-0.6-0.8-1.4-1.4-2.6-1.4C390.4,24.2,389,26,389.6,28.1 M398.4,22.2c-0.2,0.3-0.4,0.5-0.6,0.8
		c-0.7-0.9-2.8-1-3.6-0.1c-0.3-0.2-0.4-0.4-0.6-0.7C394.5,21,397.5,21,398.4,22.2 M396,16c-5,0-9,4-9,9s4,9,9,9s9-4,9-9
		S401,16,396,16"/>
</g>
</svg>
