<?xml version="1.0" encoding="utf-8"?>
<!-- Generator: Adobe Illustrator 18.1.0, SVG Export Plug-In . SVG Version: 6.00 Build 0)  -->
<svg version="1.2" baseProfile="tiny" id="Layer_1" xmlns="http://www.w3.org/2000/svg" xmlns:xlink="http://www.w3.org/1999/xlink"
	 x="0px" y="0px" viewBox="0 0 18 18.2" xml:space="preserve">
<g>
	<circle fill="#FFFFFF" cx="9" cy="9.1" r="7.8"/>
	<g>
		<path fill="#E74360" d="M12.6,8.2c-1.2,0-2,0.6-2.6,1.4c-0.1,0-0.1-0.1-0.2-0.1c0.1-0.6-0.2-1.1-0.7-1.2V7.9
			c1.3-0.1,2.2-0.8,2.6-1.8c0.8-1.9-0.5-3.8-2.2-4.1c2.1,0.3,3.8,2,3.7,4.6c1.8,0.7,3.1,3.1,2.2,5.5C16,10.1,14.6,8.2,12.6,8.2
			 M11.8,8.6c0.3-0.1,0.6-0.2,1-0.1c0.2,2.3-0.9,3.5-2.4,4.2c-0.2-0.2-0.3-0.6-0.4-0.9C11.1,11.3,12,10.3,11.8,8.6 M11.2,14.8
			C10.3,14.7,9.6,14.4,9,14c-0.6,0.4-1.3,0.7-2.2,0.8c-1.5,0.1-2.9-0.6-3.5-1.5c0,0-0.2-0.2-0.1-0.2c0.4,0.5,1.3,1,2.2,1
			c2.2,0,3.6-2.3,2.6-4.4c0.1,0,0.2-0.1,0.2-0.1C8.5,9.8,8.7,10,9,10c0.3,0,0.4-0.2,0.6-0.3c0.1,0.1,0.2,0.1,0.2,0.1
			c-1,2,0.4,4.3,2.5,4.4c1,0,1.8-0.4,2.3-1C14.2,14,12.8,14.9,11.2,14.8 M8,11.8c-0.1,0.4-0.2,0.7-0.4,0.9C6.1,12,5,10.8,5.2,8.5
			c0.3-0.1,0.7,0,1,0.1C6,10.3,6.9,11.3,8,11.8 M2.6,12.1C1.6,9.8,3,7.3,4.8,6.7C4.7,3.9,6.1,2.5,8.4,2c0.1,0.1-0.1,0-0.2,0.1
			C7,2.5,6,3.4,6,5c0,1.7,1.2,2.8,2.8,3v0.3C8.4,8.4,8,8.9,8.2,9.4C8.1,9.5,8,9.5,8,9.6C7.4,8.8,6.6,8.2,5.4,8.2
			C3.4,8.2,2,10,2.6,12.1 M11.4,6.2c-0.2,0.3-0.4,0.5-0.6,0.8C10.1,6.1,8,6,7.2,6.9C6.9,6.7,6.8,6.5,6.6,6.2C7.5,5,10.5,5,11.4,6.2
			 M9,0C4,0,0,4,0,9c0,5,4,9,9,9c5,0,9-4,9-9C18,4,14,0,9,0"/>
	</g>
</g>
</svg>
