<?xml version="1.0" encoding="utf-8"?>
<!-- Generator: Adobe Illustrator 18.1.0, SVG Export Plug-In . SVG Version: 6.00 Build 0)  -->
<svg version="1.2" baseProfile="tiny" id="Layer_1" xmlns="http://www.w3.org/2000/svg" xmlns:xlink="http://www.w3.org/1999/xlink"
	 x="0px" y="0px" viewBox="0 0 489.1 139.7" xml:space="preserve">
<g>
	<path fill="#50555B" d="M40,110.8C15.7,110.8,5.6,92.5,5.6,72C5.6,39.8,26.2,5.4,62,5.4c24,0,34.2,16.5,34.2,37.1
		C96.2,74.3,75.9,110.8,40,110.8z M60.2,16.3c-26.9,0-41.7,32.4-41.7,55.8c0,15.5,6.8,27.6,23,27.6C67.9,99.7,83,67.1,83,44.1
		C83,28.7,76.5,16.3,60.2,16.3z"/>
	<path fill="#50555B" d="M158.3,65.9l-9.1,42.7h-12.1l9.1-43c0.7-3.3,1.2-6.3,1.2-8.9c0-7.3-3.2-11.7-11.8-11.7
		c-11.8,0-21.1,10.8-24.3,26.2l-7.9,37.4H91.3l15.4-72.3h12.1l-2,9.1c5.6-6.8,13.4-10.6,22.4-10.6c14.5,0,20.4,8.1,20.4,20.3
		C159.6,58.3,159.2,62,158.3,65.9z"/>
	<path fill="#0085B7" d="M193.3,26.7v82h-24.6v-82h-28V7.5h80.7v19.1H193.3z"/>
	<path fill="#0085B7" d="M248.4,56.4c-2-2.3-5.2-3.7-7.9-3.7c-7.5,0-11.9,5-11.9,14v42h-23V34.4h23v7.2c4.5-5.9,9.5-8.8,19.3-8.8
		c3.7,0,7.5,1.2,9.9,2.3L248.4,56.4z"/>
	<path fill="#0085B7" d="M307.6,108.7c-4.6,0-8.2-1.6-9.1-6.2c-4.9,4.9-12.4,8.1-21.1,8.1c-14,0-24.7-8.8-24.7-24.6
		c0-16.4,14.2-25.5,33.9-25.5c3.7,0,7.6,0.3,11.8,1V59c0-6.3-3.7-9.8-11.9-9.8c-6,0-11.4,2.4-15.2,7.6l-15.1-8.3
		c6-10.1,16.1-16,33.4-16c19.6,0,31.5,8.3,31.5,25.7v39c0,2,1.4,3.2,5.2,3.2v8.2H307.6z M298.4,76.6c-1.9-0.9-4.2-1.3-7.5-1.3
		c-9.5,0-16.5,4.2-16.5,10.2c0,5,3.9,8.2,9.2,8.2c5,0,11.2-2.6,14.8-8.2V76.6z"/>
	<path fill="#0085B7" d="M363.3,110.8c-24.9,0-35.4-17.3-35.4-38.1c0-34.1,21.3-67.3,57.7-67.3c24.7,0,35.4,16.7,35.4,37.5
		C421,76.1,400.5,110.8,363.3,110.8z M383,18.5c-25.5,0-39,30.8-39,52.9c0,15,6.5,26.2,21.7,26.2c24.9,0,39-31.1,39-52.8
		C404.7,30.4,398.7,18.5,383,18.5z"/>
	<path fill="#0085B7" d="M372.5,85.8l9.7-8.2l17.9,30.8c0,0,24.3-60,83.2-62.3c0.4,0-1.9,22.3-1.9,22.3s-62.2,0.9-83.4,67.3
		C397.7,136.5,372.5,85.8,372.5,85.8z"/>
	<g>
		<path fill="#50555B" d="M477,35.4v0.9h-1.7v4.5h-1.1v-4.5h-1.7v-0.9H477z M482.9,40.9l-0.2-3.2c0-0.4,0-0.9,0-1.5h-0.1
			c-0.1,0.5-0.3,1.1-0.5,1.6l-1,3H480l-1-3.1c-0.1-0.4-0.3-1.1-0.4-1.5h-0.1c0,0.5,0,1,0,1.5l-0.2,3.2h-1l0.4-5.4h1.6l0.9,2.7
			c0.1,0.4,0.2,0.8,0.4,1.4h0c0.1-0.5,0.3-1,0.4-1.3l0.9-2.7h1.6l0.4,5.4H482.9z"/>
	</g>
</g>
</svg>
