<?xml version="1.0" encoding="utf-8"?>
<!-- Generator: Adobe Illustrator 18.1.0, SVG Export Plug-In . SVG Version: 6.00 Build 0)  -->
<svg version="1.2" baseProfile="tiny" id="Layer_1" xmlns="http://www.w3.org/2000/svg" xmlns:xlink="http://www.w3.org/1999/xlink"
	 x="0px" y="0px" viewBox="386.6 15.6 18.7 18.7" xml:space="preserve">
<g>
	<path fill="#FFFFFF" d="M397.2,31.4c0,0-0.8-1.4-1.4-2.7c-0.6,0.2-1.2,0.4-1.9,0.4c-2.4,0-3.4-1.7-3.4-3.7c0-3.3,2-6.5,5.5-6.5
		c2.4,0,3.4,1.6,3.4,3.6c0,2.1-0.9,4.3-2.5,5.5l0.5,0.8c0,0,2.1-5.3,7.3-5.9c-1-4-4.5-6.9-8.7-6.9c-5,0-9,4-9,9s4,9,9,9c5,0,9-4,9-9
		c0,0,0,0,0-0.1C403.8,25.1,399,25.8,397.2,31.4z"/>
	<path fill="#FFFFFF" d="M396.3,26.8c1-1,1.6-2.8,1.6-4.1c0-1.4-0.6-2.5-2.1-2.5c-2.4,0-3.7,3-3.7,5.1c0,1.4,0.6,2.5,2.1,2.5
		c0.4,0,0.8-0.1,1.1-0.2c-0.3-0.5-0.4-0.9-0.4-0.9l0.8-0.9L396.3,26.8z"/>
</g>
</svg>
