<?xml version="1.0" encoding="utf-8"?>
<!-- Generator: Adobe Illustrator 18.1.0, SVG Export Plug-In . SVG Version: 6.00 Build 0)  -->
<svg version="1.2" baseProfile="tiny" id="Layer_1" xmlns="http://www.w3.org/2000/svg" xmlns:xlink="http://www.w3.org/1999/xlink"
	 x="0px" y="0px" viewBox="0 0 18.3 18.1" xml:space="preserve">
<g>
	<circle fill="#FFFFFF" cx="9.3" cy="9.1" r="9"/>
	<g>
		<path fill="#00A7CE" d="M10.5,15.5c0,0-0.8-1.4-1.4-2.7c-0.6,0.2-1.2,0.4-1.9,0.4c-2.4,0-3.4-1.7-3.4-3.7c0-3.3,2-6.5,5.5-6.5
			c2.4,0,3.4,1.6,3.4,3.6c0,2.1-0.9,4.3-2.5,5.5l0.5,0.8c0,0,2.1-5.3,7.3-5.9C17,3,13.5,0.1,9.3,0.1c-5,0-9,4-9,9c0,5,4,9,9,9
			c5,0,9-4,9-9c0,0,0,0,0-0.1C17.1,9.2,12.3,9.9,10.5,15.5z"/>
		<path fill="#00A7CE" d="M9.6,10.9c1-1,1.6-2.8,1.6-4.1c0-1.4-0.6-2.5-2.1-2.5c-2.4,0-3.7,3-3.7,5.1c0,1.4,0.6,2.5,2.1,2.5
			c0.4,0,0.8-0.1,1.1-0.2c-0.3-0.5-0.4-0.9-0.4-0.9L9,9.9L9.6,10.9z"/>
	</g>
</g>
</svg>
